<svg width="181" height="183" viewBox="0 0 181 183" fill="none" xmlns="http://www.w3.org/2000/svg">
<path d="M90.5404 45.0059C64.8449 45.0059 44.1187 65.7463 44.1187 91.4596C44.1187 117.173 64.8449 137.913 90.5404 137.913C116.236 137.913 136.962 117.173 136.962 91.4596C136.962 65.7463 116.236 45.0059 90.5404 45.0059ZM90.5404 121.661C73.9353 121.661 60.3603 108.117 60.3603 91.4596C60.3603 74.8025 73.8949 61.2586 90.5404 61.2586C107.186 61.2586 120.721 74.8025 120.721 91.4596C120.721 108.117 107.146 121.661 90.5404 121.661ZM149.689 43.1057C149.689 49.1297 144.84 53.9408 138.861 53.9408C132.841 53.9408 128.033 49.0893 128.033 43.1057C128.033 37.1221 132.881 32.2705 138.861 32.2705C144.84 32.2705 149.689 37.1221 149.689 43.1057ZM180.434 54.1025C179.748 39.5883 176.435 26.7316 165.809 16.1391C155.224 5.54648 142.376 2.23125 127.872 1.50352C112.923 0.654493 68.1174 0.654493 53.1687 1.50352C38.7049 2.19082 25.8571 5.50605 15.2315 16.0986C4.6058 26.6912 1.33326 39.5479 0.606026 54.0621C-0.242411 69.0211 -0.242411 113.858 0.606026 128.817C1.29286 143.331 4.6058 156.188 15.2315 166.78C25.8571 177.373 38.6645 180.688 53.1687 181.416C68.1174 182.265 112.923 182.265 127.872 181.416C142.376 180.728 155.224 177.413 165.809 166.78C176.394 156.188 179.707 143.331 180.434 128.817C181.283 113.858 181.283 69.0615 180.434 54.1025ZM161.122 144.867C157.971 152.791 151.87 158.896 143.911 162.09C131.993 166.821 103.711 165.729 90.5404 165.729C77.3694 165.729 49.0478 166.78 37.1696 162.09C29.2509 158.937 23.1502 152.832 19.9585 144.867C15.2315 132.94 16.3223 104.64 16.3223 91.4596C16.3223 78.2795 15.2719 49.9383 19.9585 38.052C23.1098 30.1277 29.2105 24.0229 37.1696 20.8289C49.0882 16.0986 77.3694 17.1902 90.5404 17.1902C103.711 17.1902 132.033 16.1391 143.911 20.8289C151.83 23.9824 157.931 30.0873 161.122 38.052C165.849 49.9787 164.758 78.2795 164.758 91.4596C164.758 104.64 165.849 132.981 161.122 144.867Z" fill="white"/>
</svg>
