<svg width="225" height="207" viewBox="0 0 225 207" fill="none" xmlns="http://www.w3.org/2000/svg">
<path d="M161.037 115.955C151.908 136.703 133.123 147.562 113.059 147.311C74.5726 145.399 63.3775 100.896 89.0974 84.8288L90.2293 85.9616C89.7902 86.5382 88.2978 87.7503 85.8924 92.4623C83.0905 98.1882 82.2363 103.895 82.5674 107.464C84.5703 138.574 128.036 144.901 143.008 114.148C162.065 71.9632 111.552 29.1211 66.7025 61.8641L65.6666 60.828C77.4632 42.2942 100.514 33.9989 122.529 39.5415C156.194 47.9684 174.267 83.1296 161.038 115.954L161.037 115.955ZM125.054 115.286C121.937 119.779 116.748 122.72 110.872 122.72C101.34 122.72 93.6143 114.984 93.6143 105.44C93.6143 96.3178 100.673 88.8477 109.62 88.2056C115.192 87.9816 120.383 90.9962 122.855 95.8841C125.52 101.155 124.545 107.655 120.394 112.039L125.054 115.286ZM64.8466 103.874C64.0146 110.737 64.5328 112.88 64.531 113.696L63.0086 114.25C62.4327 113.122 60.9709 109.145 60.3267 103.801C58.6789 83.3975 72.5637 65.0109 93.6994 61.5884C113.084 58.7354 131.618 70.7902 135.959 87.6638L134.432 88.2206C133.979 87.7179 133.169 86.3526 130.239 83.3789C106.862 59.8622 70.1199 70.6484 64.8466 103.874ZM175.72 92.559C174.336 25.1299 84.8912 -0.000104614 50.4555 63.1867C51.9773 64.2889 54.0828 65.7809 55.6046 66.8831C52.9665 72.4311 51.2077 78.0819 50.2456 83.7153C49.5658 87.471 49.2245 91.2804 49.2258 95.0973C49.2258 130.089 77.5544 158.454 112.5 158.454C147.446 158.454 175.774 130.089 175.774 95.0967C175.774 94.2468 175.753 93.4017 175.72 92.559ZM210.441 177.698H200.342V206.381H192.511V177.698H182.362V170.27H210.441V177.698ZM162.509 177.698V186.056H177.811V192.04H162.509V206.381H154.679V170.27H179.357V177.698H162.509ZM143.552 188.325C143.552 181.825 139.431 177.079 133.144 177.079C129.487 177.079 126.756 178.472 125.108 180.278L126.345 181.516C124.438 183.115 122.738 185.334 122.738 189.306C122.738 194.774 126.602 199.571 133.145 199.571C139.431 199.571 143.553 194.826 143.553 188.325H143.552ZM151.486 188.325C151.486 198.953 143.861 207 133.145 207C122.171 207 114.804 199.108 114.804 189.563C114.804 183.373 117.225 178.884 120.78 175.944L119.544 174.706C122.275 171.869 127.271 169.651 133.145 169.651C143.861 169.651 151.486 177.801 151.486 188.325ZM103.25 184.869C109.432 187.036 112.627 189.822 112.627 195.393C112.627 202.873 106.908 207 100.159 207C93.925 207 89.1334 204.215 87.1245 199.055L93.3581 194.413C94.4918 197.663 97.4281 199.675 100.365 199.675C102.941 199.675 104.796 198.281 104.796 195.96C104.796 193.794 103.404 192.452 98.2523 190.595C92.6881 188.583 88.5665 185.797 88.5665 179.814C88.5665 174.036 93.3581 169.651 100.313 169.651C105.826 169.651 110.102 171.869 112.112 176.254L105.877 180.587C104.692 177.904 102.838 176.409 100.004 176.409C97.6345 176.409 95.8829 177.698 95.8829 179.556C95.8829 181.67 97.8402 182.96 103.25 184.869ZM76.4939 170.27H84.3243V206.381H76.4939V170.27ZM60.3735 199.468C63.7218 199.468 65.6282 197.921 65.6282 194.929C65.6282 191.937 63.7218 190.389 60.3735 190.389H56.0461V199.468H60.3735ZM56.0461 177.183V184.817H60.1677C62.5887 184.817 64.2377 183.424 64.2377 181C64.2377 178.575 62.5887 177.183 60.1677 177.183H56.0461ZM73.4598 195.651C73.4598 201.893 68.565 206.381 60.683 206.381H48.2145V170.27H60.2199C67.1746 170.27 71.7605 173.623 71.7605 178.987C71.7605 183.063 69.8541 185.539 67.0204 186.726C70.8325 188.171 73.4598 190.802 73.4598 195.651ZM44.3382 170.27V191.937C44.3382 200.552 39.0829 207 29.4487 207C19.8145 207 14.5592 200.552 14.5592 191.936V170.27H22.3902V191.317C22.3902 196.579 24.8634 199.571 29.4487 199.571C34.034 199.571 36.5066 196.579 36.5066 191.317V170.27H44.3382Z" fill="white"/>
</svg>
